<?xml version="1.0" standalone="no"?><!DOCTYPE svg PUBLIC "-//W3C//DTD SVG 1.1//EN" "http://www.w3.org/Graphics/SVG/1.1/DTD/svg11.dtd"><svg class="icon" height="512" viewBox="0 0 1024 1024" version="1.1" xmlns="http://www.w3.org/2000/svg"><path d="M512 64C262.4 64 64 262.4 64 512s198.4 448 448 448 448-198.4 448-448S761.6 64 512 64zM704 576 576 576l0 128c0 38.4-25.6 64-64 64s-64-25.6-64-64L448 576 320 576C281.6 576 256 550.4 256 512s25.6-64 64-64l128 0L448 320c0-38.4 25.6-64 64-64s64 25.6 64 64l0 128 128 0c38.4 0 64 25.6 64 64S742.4 576 704 576z" /></svg>